<svg xmlns="http://www.w3.org/2000/svg" viewBox="0 0 128 128">
  <defs>
    <linearGradient id="serverGrad" x1="0%" y1="0%" x2="100%" y2="100%">
      <stop offset="0%" style="stop-color:#4FC3F7"/>
      <stop offset="50%" style="stop-color:#FFB74D"/>
      <stop offset="100%" style="stop-color:#AB47BC"/>
    </linearGradient>
    <linearGradient id="brainGrad" x1="0%" y1="0%" x2="100%" y2="100%">
      <stop offset="0%" style="stop-color:#F8BBD9"/>
      <stop offset="100%" style="stop-color:#EC407A"/>
    </linearGradient>
  </defs>
  
  <!-- Server Stack Base -->
  <rect x="24" y="70" width="80" height="20" rx="4" fill="#AB47BC"/>
  <rect x="24" y="48" width="80" height="20" rx="4" fill="#FFB74D"/>
  <rect x="24" y="26" width="80" height="20" rx="4" fill="#4FC3F7"/>
  
  <!-- Server Lights -->
  <circle cx="36" cy="80" r="3" fill="#4CAF50"/>
  <circle cx="48" cy="80" r="3" fill="#4CAF50"/>
  <circle cx="36" cy="58" r="3" fill="#4CAF50"/>
  <circle cx="48" cy="58" r="3" fill="#4CAF50"/>
  <circle cx="36" cy="36" r="3" fill="#4CAF50"/>
  <circle cx="48" cy="36" r="3" fill="#4CAF50"/>
  
  <!-- Brain on Top -->
  <ellipse cx="64" cy="16" rx="24" ry="14" fill="url(#brainGrad)"/>
  <path d="M52 12 Q56 8 60 12 Q64 8 68 12 Q72 8 76 12" stroke="#EC407A" stroke-width="2" fill="none"/>
  <path d="M48 16 Q52 20 56 16 Q60 20 64 16 Q68 20 72 16 Q76 20 80 16" stroke="#EC407A" stroke-width="2" fill="none"/>
  
  <!-- Thought Bubbles -->
  <circle cx="94" cy="8" r="4" fill="#FFE082"/>
  <circle cx="100" cy="14" r="3" fill="#FFE082"/>
  <circle cx="104" cy="22" r="2" fill="#FFE082"/>
  
  <!-- Gears -->
  <circle cx="100" cy="60" r="8" fill="#78909C" stroke="#546E7A" stroke-width="2"/>
  <circle cx="100" cy="60" r="3" fill="#455A64"/>
  <circle cx="112" cy="72" r="6" fill="#90A4AE" stroke="#607D8B" stroke-width="1.5"/>
  <circle cx="112" cy="72" r="2" fill="#455A64"/>
  
  <!-- Connection Lines -->
  <line x1="64" y1="30" x2="64" y2="26" stroke="#4FC3F7" stroke-width="2" stroke-dasharray="2,2"/>
</svg>
