<svg width="1200" height="630" viewBox="0 0 1200 630" xmlns="http://www.w3.org/2000/svg">
  <defs>
    <linearGradient id="bg" x1="0%" y1="0%" x2="100%" y2="100%">
      <stop offset="0%" style="stop-color:#0f172a" />
      <stop offset="100%" style="stop-color:#1e293b" />
    </linearGradient>
    <linearGradient id="communication" x1="0%" y1="0%" x2="100%" y2="0%">
      <stop offset="0%" style="stop-color:#10b981" />
      <stop offset="50%" style="stop-color:#f59e0b" />
      <stop offset="100%" style="stop-color:#ef4444" />
    </linearGradient>
  </defs>
  
  <!-- Background -->
  <rect width="1200" height="630" fill="url(#bg)" />
  
  <!-- Title -->
  <text x="600" y="60" text-anchor="middle" fill="#f1f5f9" font-family="Arial, sans-serif" font-size="36" font-weight="bold">Bugs Are Just Misunderstandings</text>
  <text x="600" y="95" text-anchor="middle" fill="#94a3b8" font-family="Arial, sans-serif" font-size="20">Code failures mirror miscommunication among teams</text>
  
  <!-- Communication chain -->
  <!-- Business Person -->
  <g transform="translate(80, 140)">
    <circle cx="30" cy="25" r="20" fill="#6366f1" />
    <rect x="18" y="45" width="24" height="30" rx="4" fill="#6366f1" />
    <text x="30" y="85" text-anchor="middle" fill="#94a3b8" font-family="Arial, sans-serif" font-size="14" font-weight="bold">Business</text>
    
    <!-- Speech bubble -->
    <rect x="55" y="5" width="120" height="40" rx="8" fill="#10b981" opacity="0.9" />
    <polygon points="55,30 45,25 55,20" fill="#10b981" opacity="0.9" />
    <text x="115" y="22" text-anchor="middle" fill="white" font-family="Arial, sans-serif" font-size="12">"Make it user-friendly"</text>
    <text x="115" y="35" text-anchor="middle" fill="white" font-family="Arial, sans-serif" font-size="12">"Like Amazon"</text>
  </g>
  
  <!-- Arrow 1 -->
  <g transform="translate(220, 165)">
    <line x1="0" y1="0" x2="60" y2="0" stroke="#94a3b8" stroke-width="3" marker-end="url(#arrowhead)" />
    <text x="30" y="-10" text-anchor="middle" fill="#64748b" font-family="Arial, sans-serif" font-size="12">Translation</text>
  </g>
  
  <!-- Requirements Analyst -->
  <g transform="translate(320, 140)">
    <circle cx="30" cy="25" r="20" fill="#8b5cf6" />
    <rect x="18" y="45" width="24" height="30" rx="4" fill="#8b5cf6" />
    <text x="30" y="85" text-anchor="middle" fill="#94a3b8" font-family="Arial, sans-serif" font-size="14" font-weight="bold">Requirements</text>
    
    <!-- Speech bubble -->
    <rect x="55" y="5" width="120" height="40" rx="8" fill="#f59e0b" opacity="0.9" />
    <polygon points="55,30 45,25 55,20" fill="#f59e0b" opacity="0.9" />
    <text x="115" y="22" text-anchor="middle" fill="white" font-family="Arial, sans-serif" font-size="12">"Intuitive UI with"</text>
    <text x="115" y="35" text-anchor="middle" fill="white" font-family="Arial, sans-serif" font-size="12">"one-click checkout"</text>
  </g>
  
  <!-- Arrow 2 -->
  <g transform="translate(460, 165)">
    <line x1="0" y1="0" x2="60" y2="0" stroke="#94a3b8" stroke-width="3" marker-end="url(#arrowhead)" />
    <text x="30" y="-10" text-anchor="middle" fill="#64748b" font-family="Arial, sans-serif" font-size="12">Interpretation</text>
  </g>
  
  <!-- Developer -->
  <g transform="translate(560, 140)">
    <circle cx="30" cy="25" r="20" fill="#06b6d4" />
    <rect x="18" y="45" width="24" height="30" rx="4" fill="#06b6d4" />
    <text x="30" y="85" text-anchor="middle" fill="#94a3b8" font-family="Arial, sans-serif" font-size="14" font-weight="bold">Developer</text>
    
    <!-- Speech bubble -->
    <rect x="55" y="5" width="120" height="40" rx="8" fill="#ef4444" opacity="0.9" />
    <polygon points="55,30 45,25 55,20" fill="#ef4444" opacity="0.9" />
    <text x="115" y="22" text-anchor="middle" fill="white" font-family="Arial, sans-serif" font-size="12">"Complex workflow"</text>
    <text x="115" y="35" text-anchor="middle" fill="white" font-family="Arial, sans-serif" font-size="12">"with validations"</text>
  </g>
  
  <!-- Arrow 3 -->
  <g transform="translate(700, 165)">
    <line x1="0" y1="0" x2="60" y2="0" stroke="#94a3b8" stroke-width="3" marker-end="url(#arrowhead)" />
    <text x="30" y="-10" text-anchor="middle" fill="#64748b" font-family="Arial, sans-serif" font-size="12">Implementation</text>
  </g>
  
  <!-- User -->
  <g transform="translate(800, 140)">
    <circle cx="30" cy="25" r="20" fill="#ef4444" />
    <rect x="18" y="45" width="24" height="30" rx="4" fill="#ef4444" />
    <text x="30" y="85" text-anchor="middle" fill="#94a3b8" font-family="Arial, sans-serif" font-size="14" font-weight="bold">User</text>
    
    <!-- Speech bubble -->
    <rect x="55" y="5" width="120" height="40" rx="8" fill="#64748b" opacity="0.9" />
    <polygon points="55,30 45,25 55,20" fill="#64748b" opacity="0.9" />
    <text x="115" y="22" text-anchor="middle" fill="white" font-family="Arial, sans-serif" font-size="12">"This is confusing!"</text>
    <text x="115" y="35" text-anchor="middle" fill="white" font-family="Arial, sans-serif" font-size="12">"Bug report filed"</text>
  </g>
  
  <!-- Bug indicator -->
  <g transform="translate(450, 250)">
    <circle cx="100" cy="40" r="60" fill="#ef4444" opacity="0.2" stroke="#ef4444" stroke-width="3" stroke-dasharray="8,8" />
    <text x="100" y="30" text-anchor="middle" fill="#ef4444" font-family="Arial, sans-serif" font-size="24">🐛</text>
    <text x="100" y="50" text-anchor="middle" fill="#ef4444" font-family="Arial, sans-serif" font-size="18" font-weight="bold">BUG ZONE</text>
    <text x="100" y="70" text-anchor="middle" fill="#ef4444" font-family="Arial, sans-serif" font-size="14">Communication Gap</text>
  </g>
  
  <!-- Information Loss Visualization -->
  <g transform="translate(80, 380)">
    <text x="0" y="0" fill="#f1f5f9" font-family="Arial, sans-serif" font-size="20" font-weight="bold">Information Loss at Each Step:</text>
    
    <!-- Information bars -->
    <rect x="0" y="20" width="150" height="25" fill="#10b981" rx="5" />
    <text x="160" y="38" fill="#94a3b8" font-family="Arial, sans-serif" font-size="16">100% - Original Intent</text>
    
    <rect x="0" y="55" width="110" height="25" fill="#f59e0b" rx="5" />
    <text x="120" y="73" fill="#94a3b8" font-family="Arial, sans-serif" font-size="16">75% - Requirements Doc</text>
    
    <rect x="0" y="90" width="75" height="25" fill="#ef4444" rx="5" />
    <text x="85" y="108" fill="#94a3b8" font-family="Arial, sans-serif" font-size="16">50% - Final Implementation</text>
  </g>
  
  <!-- Solution box -->
  <g transform="translate(550, 380)">
    <rect x="0" y="0" width="400" height="120" fill="#1e293b" stroke="#3b82f6" stroke-width="3" rx="8" />
    <text x="200" y="30" text-anchor="middle" fill="#3b82f6" font-family="Arial, sans-serif" font-size="20" font-weight="bold">Solution: Better Communication</text>
    <text x="20" y="55" fill="#94a3b8" font-family="Arial, sans-serif" font-size="14">• Define success scenarios explicitly</text>
    <text x="20" y="75" fill="#94a3b8" font-family="Arial, sans-serif" font-size="14">• Test understanding with examples</text>
    <text x="20" y="95" fill="#94a3b8" font-family="Arial, sans-serif" font-size="14">• Document the "why" behind requirements</text>
  </g>
  
  <!-- Arrow marker definition -->
  <defs>
    <marker id="arrowhead" markerWidth="15" markerHeight="10" refX="13" refY="5" orient="auto">
      <polygon points="0 0, 15 5, 0 10" fill="#94a3b8" />
    </marker>
  </defs>
  
  <!-- Logo -->
  <g transform="translate(50, 50)">
    <circle cx="25" cy="25" r="25" fill="#1e293b" stroke="#3b82f6" stroke-width="2" />
    <text x="25" y="35" text-anchor="middle" fill="#3b82f6" font-family="Arial, sans-serif" font-size="20">🎛️</text>
  </g>
  
  <!-- Bottom quote -->
  <text x="600" y="580" text-anchor="middle" fill="#64748b" font-family="Arial, sans-serif" font-size="18" style="font-style: italic;">"Fix the conversation, fix the code"</text>
</svg> 