<svg width="800" height="400" viewBox="0 0 800 400" xmlns="http://www.w3.org/2000/svg">
  <defs>
    <linearGradient id="bg" x1="0%" y1="0%" x2="100%" y2="100%">
      <stop offset="0%" style="stop-color:#1e293b" />
      <stop offset="100%" style="stop-color:#0f172a" />
    </linearGradient>
    <linearGradient id="trust" x1="0%" y1="0%" x2="100%" y2="0%">
      <stop offset="0%" style="stop-color:#ef4444" />
      <stop offset="50%" style="stop-color:#f59e0b" />
      <stop offset="100%" style="stop-color:#10b981" />
    </linearGradient>
  </defs>
  
  <!-- Background -->
  <rect width="800" height="400" fill="url(#bg)" />
  
  <!-- Title -->
  <text x="400" y="40" text-anchor="middle" fill="#f1f5f9" font-family="Arial, sans-serif" font-size="24" font-weight="bold">Trust: Human vs Machine</text>
  
  <!-- Human side -->
  <g transform="translate(150, 100)">
    <!-- Human figure -->
    <circle cx="50" cy="30" r="20" fill="#64748b" />
    <rect x="35" y="50" width="30" height="40" rx="5" fill="#64748b" />
    <rect x="25" y="70" width="15" height="30" rx="3" fill="#64748b" />
    <rect x="60" y="70" width="15" height="30" rx="3" fill="#64748b" />
    
    <!-- Emotion indicators -->
    <circle cx="30" cy="130" r="8" fill="#ef4444" opacity="0.7" />
    <text x="30" y="135" text-anchor="middle" fill="white" font-size="10">😟</text>
    
    <circle cx="50" cy="140" r="8" fill="#f59e0b" opacity="0.7" />
    <text x="50" y="145" text-anchor="middle" fill="white" font-size="10">🤔</text>
    
    <circle cx="70" cy="130" r="8" fill="#ef4444" opacity="0.7" />
    <text x="70" y="135" text-anchor="middle" fill="white" font-size="10">😠</text>
    
    <!-- Label -->
    <text x="50" y="170" text-anchor="middle" fill="#94a3b8" font-family="Arial, sans-serif" font-size="14">Human Friend</text>
    <text x="50" y="185" text-anchor="middle" fill="#64748b" font-family="Arial, sans-serif" font-size="11">Unpredictable</text>
  </g>
  
  <!-- Machine side -->
  <g transform="translate(550, 100)">
    <!-- Robot/Machine figure -->
    <rect x="30" y="20" width="40" height="35" rx="5" fill="#3b82f6" />
    <rect x="35" y="25" width="10" height="8" rx="2" fill="#60a5fa" />
    <rect x="55" y="25" width="10" height="8" rx="2" fill="#60a5fa" />
    <rect x="42" y="38" width="16" height="4" rx="2" fill="#60a5fa" />
    
    <!-- Body -->
    <rect x="25" y="55" width="50" height="40" rx="5" fill="#3b82f6" />
    
    <!-- Arms -->
    <rect x="10" y="65" width="15" height="20" rx="3" fill="#3b82f6" />
    <rect x="75" y="65" width="15" height="20" rx="3" fill="#3b82f6" />
    
    <!-- Legs -->
    <rect x="35" y="95" width="12" height="25" rx="3" fill="#3b82f6" />
    <rect x="53" y="95" width="12" height="25" rx="3" fill="#3b82f6" />
    
    <!-- Consistency indicators -->
    <circle cx="30" cy="130" r="8" fill="#10b981" opacity="0.7" />
    <text x="30" y="135" text-anchor="middle" fill="white" font-size="10">✓</text>
    
    <circle cx="50" cy="140" r="8" fill="#10b981" opacity="0.7" />
    <text x="50" y="145" text-anchor="middle" fill="white" font-size="10">✓</text>
    
    <circle cx="70" cy="130" r="8" fill="#10b981" opacity="0.7" />
    <text x="70" y="135" text-anchor="middle" fill="white" font-size="10">✓</text>
    
    <!-- Label -->
    <text x="50" y="170" text-anchor="middle" fill="#94a3b8" font-family="Arial, sans-serif" font-size="14">Machine Algorithm</text>
    <text x="50" y="185" text-anchor="middle" fill="#64748b" font-family="Arial, sans-serif" font-size="11">Consistent</text>
  </g>
  
  <!-- Trust arrow -->
  <g transform="translate(350, 200)">
    <rect x="0" y="0" width="100" height="20" rx="10" fill="url(#trust)" />
    <polygon points="90,0 100,10 90,20" fill="#10b981" />
    <text x="50" y="14" text-anchor="middle" fill="white" font-family="Arial, sans-serif" font-size="12" font-weight="bold">TRUST FLOW</text>
  </g>
  
  <!-- Trust levels -->
  <g transform="translate(80, 280)">
    <text x="0" y="0" fill="#ef4444" font-family="Arial, sans-serif" font-size="12">Low Trust</text>
    <text x="0" y="20" fill="#64748b" font-family="Arial, sans-serif" font-size="10">• Emotional</text>
    <text x="0" y="35" fill="#64748b" font-family="Arial, sans-serif" font-size="10">• Variable</text>
    <text x="0" y="50" fill="#64748b" font-family="Arial, sans-serif" font-size="10">• Complex</text>
  </g>
  
  <g transform="translate(580, 280)">
    <text x="0" y="0" fill="#10b981" font-family="Arial, sans-serif" font-size="12">High Trust</text>
    <text x="0" y="20" fill="#64748b" font-family="Arial, sans-serif" font-size="10">• Logical</text>
    <text x="0" y="35" fill="#64748b" font-family="Arial, sans-serif" font-size="10">• Predictable</text>
    <text x="0" y="50" fill="#64748b" font-family="Arial, sans-serif" font-size="10">• Reliable</text>
  </g>
  
  <!-- Bottom text -->
  <text x="400" y="365" text-anchor="middle" fill="#64748b" font-family="Arial, sans-serif" font-size="14" style="font-style: italic;">"We prefer predictable failure over unpredictable success"</text>
</svg> 