<svg width="800" height="400" viewBox="0 0 800 400" xmlns="http://www.w3.org/2000/svg">
  <defs>
    <linearGradient id="bg" x1="0%" y1="0%" x2="100%" y2="100%">
      <stop offset="0%" style="stop-color:#1e293b" />
      <stop offset="100%" style="stop-color:#0f172a" />
    </linearGradient>
    <linearGradient id="trust" x1="0%" y1="0%" x2="100%" y2="0%">
      <stop offset="0%" style="stop-color:#ef4444" />
      <stop offset="50%" style="stop-color:#f59e0b" />
      <stop offset="100%" style="stop-color:#10b981" />
    </linearGradient>
  </defs>
  
  <rect width="800" height="400" fill="url(#bg)" />
  
  <text x="400" y="40" text-anchor="middle" fill="#f1f5f9" font-family="Arial, sans-serif" font-size="28" font-weight="bold">We Trust Machines More Than People</text>
  
  <!-- Human side -->
  <g transform="translate(120, 80)">
    <circle cx="60" cy="35" r="25" fill="#64748b" />
    <rect x="42" y="60" width="36" height="50" rx="6" fill="#64748b" />
    <rect x="30" y="85" width="18" height="35" rx="4" fill="#64748b" />
    <rect x="72" y="85" width="18" height="35" rx="4" fill="#64748b" />
    
    <circle cx="35" cy="155" r="10" fill="#ef4444" opacity="0.8" />
    <text x="35" y="162" text-anchor="middle" fill="white" font-size="14">😟</text>
    <circle cx="60" cy="168" r="10" fill="#f59e0b" opacity="0.8" />
    <text x="60" y="175" text-anchor="middle" fill="white" font-size="14">🤔</text>
    <circle cx="85" cy="155" r="10" fill="#ef4444" opacity="0.8" />
    <text x="85" y="162" text-anchor="middle" fill="white" font-size="14">😠</text>
    
    <text x="60" y="200" text-anchor="middle" fill="#94a3b8" font-family="Arial, sans-serif" font-size="18" font-weight="bold">Human Friend</text>
    <text x="60" y="220" text-anchor="middle" fill="#64748b" font-family="Arial, sans-serif" font-size="14">Unpredictable • Emotional</text>
  </g>
  
  <!-- Machine side -->
  <g transform="translate(580, 80)">
    <rect x="35" y="25" width="50" height="45" rx="6" fill="#3b82f6" />
    <rect x="42" y="32" width="12" height="10" rx="2" fill="#60a5fa" />
    <rect x="66" y="32" width="12" height="10" rx="2" fill="#60a5fa" />
    <rect x="50" y="48" width="20" height="5" rx="2" fill="#60a5fa" />
    <rect x="30" y="70" width="60" height="50" rx="6" fill="#3b82f6" />
    <rect x="12" y="82" width="18" height="25" rx="4" fill="#3b82f6" />
    <rect x="90" y="82" width="18" height="25" rx="4" fill="#3b82f6" />
    <rect x="42" y="120" width="15" height="30" rx="4" fill="#3b82f6" />
    <rect x="63" y="120" width="15" height="30" rx="4" fill="#3b82f6" />
    
    <circle cx="35" cy="155" r="10" fill="#10b981" opacity="0.8" />
    <text x="35" y="162" text-anchor="middle" fill="white" font-size="14">✓</text>
    <circle cx="60" cy="168" r="10" fill="#10b981" opacity="0.8" />
    <text x="60" y="175" text-anchor="middle" fill="white" font-size="14">✓</text>
    <circle cx="85" cy="155" r="10" fill="#10b981" opacity="0.8" />
    <text x="85" y="162" text-anchor="middle" fill="white" font-size="14">✓</text>
    
    <text x="60" y="200" text-anchor="middle" fill="#94a3b8" font-family="Arial, sans-serif" font-size="18" font-weight="bold">Machine Algorithm</text>
    <text x="60" y="220" text-anchor="middle" fill="#64748b" font-family="Arial, sans-serif" font-size="14">Consistent • Predictable</text>
  </g>
  
  <!-- Trust flow -->
  <g transform="translate(300, 250)">
    <rect x="0" y="0" width="200" height="35" rx="17" fill="url(#trust)" />
    <polygon points="180,0 200,17 180,35" fill="#10b981" />
    <text x="100" y="25" text-anchor="middle" fill="white" font-family="Arial, sans-serif" font-size="16" font-weight="bold">TRUST FLOW</text>
  </g>
  
  <!-- Trust levels -->
  <g transform="translate(100, 320)">
    <text x="0" y="0" fill="#ef4444" font-family="Arial, sans-serif" font-size="16" font-weight="bold">Low Trust</text>
    <text x="0" y="20" fill="#64748b" font-family="Arial, sans-serif" font-size="12">Years to build, seconds to break</text>
  </g>
  
  <g transform="translate(520, 320)">
    <text x="0" y="0" fill="#10b981" font-family="Arial, sans-serif" font-size="16" font-weight="bold">High Trust</text>
    <text x="0" y="20" fill="#64748b" font-family="Arial, sans-serif" font-size="12">Minutes to build, patterns to maintain</text>
  </g>
  
  <text x="400" y="380" text-anchor="middle" fill="#64748b" font-family="Arial, sans-serif" font-size="16" style="font-style: italic;">"We prefer predictable failure over unpredictable success"</text>
</svg> 